<?xml version="1.0" standalone="no"?><!DOCTYPE svg PUBLIC "-//W3C//DTD SVG 1.1//EN" "http://www.w3.org/Graphics/SVG/1.1/DTD/svg11.dtd"><svg class="icon" width="200px" height="200.00px" viewBox="0 0 1024 1024" version="1.1" xmlns="http://www.w3.org/2000/svg"><path d="M896 128H128a32 32 0 0 0-32 32v512a32 32 0 0 0 32 32h768a32 32 0 0 0 32-32V160a32 32 0 0 0-32-32z" fill="#548AFF" /><path d="M992 640H32a32 32 0 0 0-32 32v128a96.128 96.128 0 0 0 96 96h832a96.096 96.096 0 0 0 96-96v-128a32 32 0 0 0-32-32z" fill="#4367E0" /><path d="M192 640v96a32 32 0 0 0 32 32h576a32 32 0 0 0 32-32v-96H192z" fill="#2744C1" /><path d="M480 416H256a32 32 0 0 1 0-64h224a32 32 0 0 1 0 64zM704 544H256a32 32 0 0 1 0-64h448a32 32 0 0 1 0 64zM800 288H256a32 32 0 0 1 0-64h544a32 32 0 0 1 0 64z" fill="#FFC431" /></svg>