<?xml version="1.0" standalone="no"?><!DOCTYPE svg PUBLIC "-//W3C//DTD SVG 1.1//EN" "http://www.w3.org/Graphics/SVG/1.1/DTD/svg11.dtd"><svg class="icon" width="200px" height="200.00px" viewBox="0 0 1024 1024" version="1.1" xmlns="http://www.w3.org/2000/svg"><path d="M512 320a32 32 0 0 1-32-32V160a32 32 0 1 1 64 0v128a32 32 0 0 1-32 32z" fill="#4367E0" /><path d="M704 0h-192a32 32 0 0 0-32 32v160h224a32 32 0 0 0 32-32V32a32 32 0 0 0-32-32z" fill="#548AFF" /><path d="M960 512h-256a32 32 0 0 0-32 32v448a32 32 0 0 0 32 32h256a32 32 0 0 0 32-32V544a32 32 0 0 0-32-32z" fill="#4367E0" /><path d="M896 704h-64a32 32 0 0 1 0-64h64a32 32 0 0 1 0 64zM896 800h-64a32 32 0 0 1 0-64h64a32 32 0 0 1 0 64zM896 896h-64a32 32 0 0 1 0-64h64a32 32 0 0 1 0 64z" fill="#FFC431" /><path d="M320 512H64a32 32 0 0 0-32 32v448a32 32 0 0 0 32 32h256a32 32 0 0 0 32-32V544a32 32 0 0 0-32-32z" fill="#4367E0" /><path d="M416 576H32a32 32 0 0 1 0-64h384a32 32 0 0 1 0 64zM608 576h384a32 32 0 0 0 0-64H608a32 32 0 0 0 0 64zM192 704H128a32 32 0 0 1 0-64h64a32 32 0 0 1 0 64zM192 800H128a32 32 0 0 1 0-64h64a32 32 0 0 1 0 64zM192 896H128a32 32 0 0 1 0-64h64a32 32 0 0 1 0 64z" fill="#FFC431" /><path d="M721.76 389.376l-192-128a31.936 31.936 0 0 0-35.52 0l-192 128A32 32 0 0 0 288 416v576a32 32 0 0 0 32 32h384a32 32 0 0 0 32-32V416a32 32 0 0 0-14.24-26.624z" fill="#548AFF" /><path d="M576 768h-128a32 32 0 0 0-32 32v192a32 32 0 0 0 32 32h128a32 32 0 0 0 32-32v-192a32 32 0 0 0-32-32zM576 704h-128a32 32 0 0 1 0-64h128a32 32 0 0 1 0 64zM576 608h-128a32 32 0 0 1 0-64h128a32 32 0 0 1 0 64zM576 512h-128a32 32 0 0 1 0-64h128a32 32 0 0 1 0 64z" fill="#4367E0" /><path d="M992 960H32a32 32 0 0 0 0 64h960a32 32 0 0 0 0-64z" fill="#FFC431" /></svg>