<?xml version="1.0" standalone="no"?><!DOCTYPE svg PUBLIC "-//W3C//DTD SVG 1.1//EN" "http://www.w3.org/Graphics/SVG/1.1/DTD/svg11.dtd"><svg class="icon" width="200px" height="200.00px" viewBox="0 0 1024 1024" version="1.1" xmlns="http://www.w3.org/2000/svg"><path d="M982.624 137.376l-96-96a32 32 0 0 0-45.248 0l-96 96a32 32 0 0 0 0 45.248l96 96a32 32 0 0 0 45.248 0l96-96a32 32 0 0 0 0-45.248z" fill="#2744C1" /><path d="M950.624 297.376l-224-224a32 32 0 0 0-45.248 0L65.6 689.152l-33.376 266.88a32 32 0 0 0 35.744 35.712l266.88-33.344 615.776-615.776a32 32 0 0 0 0-45.248z" fill="#548AFF" /><path d="M800 800a31.872 31.872 0 0 1-22.624-9.376 122.624 122.624 0 0 1 0-173.248l120.48-120.512a69.12 69.12 0 0 0 0-97.728l-24.48-24.512a32 32 0 0 1 45.248-45.248l24.512 24.512a133.12 133.12 0 0 1 0 188.224l-120.512 120.512a58.592 58.592 0 0 0 0 82.752A32 32 0 0 1 800 800z" fill="#2744C1" /><path d="M546.752 208l269.248 269.248 134.624-134.624a32 32 0 0 0 0-45.248l-224-224a32 32 0 0 0-45.248 0L546.752 208zM41.376 982.624a31.936 31.936 0 0 0 26.56 9.12l266.88-33.344-269.216-269.248-33.376 266.88a31.968 31.968 0 0 0 9.152 26.592z" fill="#4367E0" /></svg>