<?xml version="1.0" standalone="no"?><!DOCTYPE svg PUBLIC "-//W3C//DTD SVG 1.1//EN" "http://www.w3.org/Graphics/SVG/1.1/DTD/svg11.dtd"><svg class="icon" width="200px" height="200.00px" viewBox="0 0 1024 1024" version="1.1" xmlns="http://www.w3.org/2000/svg"><path d="M870.816 641.696L736 608H288l-134.816 33.696A160 160 0 0 0 32 796.896V960a32 32 0 0 0 32 32h896a32 32 0 0 0 32-32v-163.072a160 160 0 0 0-121.184-155.2z" fill="#548AFF" /><path d="M544 704v288h-64v-288a32 32 0 1 1 64 0z" fill="#4367E0" /><path d="M608 448v128l-96 128-96-128v-128a160 160 0 0 0 192 0z" fill="#EFC3B9" /><path d="M352 416h-32a64 64 0 0 1-64-64V160a96 96 0 0 1 96-96c20.48-20.48 48.288-32 77.248-32H640a128 128 0 0 1 128 128v192a64 64 0 0 1-64 64h-32" fill="#3C3E47" /><path d="M832 864v128h-64v-128a32 32 0 1 1 64 0zM256 864v128H192v-128a32 32 0 1 1 64 0z" fill="#4367E0" /><path d="M352 192v160a160 160 0 1 0 320 0V224L352 192z" fill="#FFD7CC" /><path d="M608 576l-96 128 128 64 96-160-128-32zM416 576l96 128-128 64-96-160 128-32z" fill="#FFC431" /></svg>