<?xml version="1.0" standalone="no"?><!DOCTYPE svg PUBLIC "-//W3C//DTD SVG 1.1//EN" "http://www.w3.org/Graphics/SVG/1.1/DTD/svg11.dtd"><svg class="icon" width="200px" height="200.00px" viewBox="0 0 1024 1024" version="1.1" xmlns="http://www.w3.org/2000/svg"><path d="M832 32H192a96.096 96.096 0 0 0-96 96v768a32 32 0 1 0 64 0 32.032 32.032 0 0 1 32-32h640a32 32 0 0 0 32-32V64a32 32 0 0 0-32-32z" fill="#ACC9FC" /><path d="M192 32a96.096 96.096 0 0 0-96 96v768a32 32 0 1 0 64 0 32.032 32.032 0 0 1 32-32h96V32H192zM736 128H416a32 32 0 0 0-32 32v160a32 32 0 0 0 32 32h320a32 32 0 0 0 32-32V160a32 32 0 0 0-32-32z" fill="#548AFF" /><path d="M864 800H195.776a98.56 98.56 0 0 0-97.92 76.864A96.16 96.16 0 0 0 192 992h640a32 32 0 0 0 32-32v-160z" fill="#4367E0" /></svg>