<?xml version="1.0" standalone="no"?><!DOCTYPE svg PUBLIC "-//W3C//DTD SVG 1.1//EN" "http://www.w3.org/Graphics/SVG/1.1/DTD/svg11.dtd"><svg class="icon" width="200px" height="200.00px" viewBox="0 0 1024 1024" version="1.1" xmlns="http://www.w3.org/2000/svg"><path d="M236.256 290.432a31.872 31.872 0 0 0-34.88 6.944l-160 160a31.968 31.968 0 0 0 5.344 49.568l160 102.72a31.936 31.936 0 0 0 39.904-4.32A31.936 31.936 0 0 0 256 582.72V320a32 32 0 0 0-19.744-29.568zM982.624 457.376l-160-160A32 32 0 0 0 768 320v262.72a32 32 0 0 0 49.28 26.944l160-102.72a32 32 0 0 0 5.344-49.568z" fill="#E8A113" /><path d="M800 0H224a32 32 0 0 0-32 32v550.848a32 32 0 0 0 14.688 26.88l288 185.184a31.968 31.968 0 0 0 34.624 0l288-185.152a32 32 0 0 0 14.688-26.912V32a32 32 0 0 0-32-32z" fill="#548AFF" /><path d="M975.36 451.904a32.096 32.096 0 0 0-32.64 1.184L512 729.952 81.28 453.12A32 32 0 0 0 32 480v512a32 32 0 0 0 32 32h896a32 32 0 0 0 32-32V480a32.096 32.096 0 0 0-16.64-28.096zM672 160H352a32 32 0 1 1 0-64h320a32 32 0 1 1 0 64zM672 288H352a32 32 0 1 1 0-64h320a32 32 0 1 1 0 64zM672 416H352a32 32 0 0 1 0-64h320a32 32 0 0 1 0 64z" fill="#FFC431" /><path d="M672 544H352a32 32 0 0 1 0-64h320a32 32 0 0 1 0 64z" fill="#FFC431" /><path d="M649.184 641.792L512 729.92l-137.184-88.16L32 978.592V992a32 32 0 0 0 32 32h896a32 32 0 0 0 32-32v-13.408L649.184 641.792z" fill="#E8A113" /></svg>