<?xml version="1.0" standalone="no"?><!DOCTYPE svg PUBLIC "-//W3C//DTD SVG 1.1//EN" "http://www.w3.org/Graphics/SVG/1.1/DTD/svg11.dtd"><svg class="icon" width="200px" height="200.00px" viewBox="0 0 1024 1024" version="1.1" xmlns="http://www.w3.org/2000/svg"><path d="M672 448h-192a32 32 0 0 0-32 32v256a32 32 0 0 0 49.76 26.624L576 710.464l78.24 52.16A32 32 0 0 0 704 736v-256a32 32 0 0 0-32-32z" fill="#E8A113" /><path d="M928 448c-12.736 0-32-25.536-32-64s19.264-64 32-64a32 32 0 0 0 0-64H96c-53.856 0-96 56.224-96 128 0 71.776 42.144 128 96 128h832a32 32 0 0 0 0-64z" fill="#548AFF" /><path d="M576 384c0-77.952 23.264-122.272 33.216-128h-267.008A347.168 347.168 0 0 0 320 384a347.2 347.2 0 0 0 22.208 128h267.008C599.264 506.272 576 461.952 576 384z" fill="#FFC431" /><path d="M928 512c53.024 0 96-57.28 96-128s-42.976-128-96-128-96 57.28-96 128 42.976 128 96 128z" fill="#4367E0" /></svg>