<?xml version="1.0" standalone="no"?><!DOCTYPE svg PUBLIC "-//W3C//DTD SVG 1.1//EN" "http://www.w3.org/Graphics/SVG/1.1/DTD/svg11.dtd"><svg class="icon" width="200px" height="200.00px" viewBox="0 0 1024 1024" version="1.1" xmlns="http://www.w3.org/2000/svg"><path d="M960 160H64a32 32 0 0 0-32 32v640a32 32 0 0 0 32 32h896a32 32 0 0 0 32-32V192a32 32 0 0 0-32-32z" fill="#FFC431" /><path d="M960 160H64a32 32 0 0 0-32 32v184.16l471.2 134.624a32.32 32.32 0 0 0 19.552-0.64L992 342.496V192a32 32 0 0 0-32-32z" fill="#E8A113" /></svg>